<svg xmlns="http://www.w3.org/2000/svg" viewBox="0 0 512 512">
  <rect width="512" height="512" rx="112" fill="#0d1b24"/>
  <rect x="112" y="128" width="288" height="272" rx="40" fill="none" stroke="#60a5fa" stroke-width="20"/>
  <path d="M112 208h288" stroke="#60a5fa" stroke-width="20" stroke-linecap="round"/>
  <path d="M176 104v56" stroke="#60a5fa" stroke-width="24" stroke-linecap="round"/>
  <path d="M336 104v56" stroke="#fb923c" stroke-width="24" stroke-linecap="round"/>
  <!-- Corazon partido por la mitad: azul y naranja, como los eventos de los dos. -->
  <path d="M256 348c-5 0-9-3-12-6-24-20-46-37-46-61 0-19 15-34 34-34 11 0 20 5 24 13v88z" fill="#60a5fa"/>
  <path d="M256 348c5 0 9-3 12-6 24-20 46-37 46-61 0-19-15-34-34-34-11 0-20 5-24 13v88z" fill="#fb923c"/>
</svg>
